{"asset":{"version":"2.0","generator":"Blockbench 4.12.5 glTF exporter"},"scenes":[{"nodes":[1],"name":"blockbench_export"}],"scene":0,"nodes":[{"rotation":[-0.7071067811865475,0,0,0.7071067811865476],"name":"tube","mesh":0},{"children":[0]}],"bufferViews":[{"buffer":0,"byteOffset":0,"byteLength":4032,"target":34962,"byteStride":12},{"buffer":0,"byteOffset":4032,"byteLength":4032,"target":34962,"byteStride":12},{"buffer":0,"byteOffset":8064,"byteLength":2688,"target":34962,"byteStride":8},{"buffer":0,"byteOffset":10752,"byteLength":1008,"target":34963}],"buffers":[{"byteLength":11760,"uri":"data:application/octet-stream;base64,"}],"accessors":[{"bufferView":0,"componentType":5126,"count":336,"max":[0.5,1,0.5625],"min":[-0.5,-0.5,-0.875],"type":"VEC3"},{"bufferView":1,"componentType":5126,"count":336,"max":[1,1,0.9899494647979736],"min":[-1,-0.5547001957893372,-0.9899494647979736],"type":"VEC3"},{"bufferView":2,"componentType":5126,"count":336,"max":[0.26794999837875366,0.5],"min":[0,0],"type":"VEC2"},{"bufferView":3,"componentType":5123,"count":504,"max":[335],"min":[0],"type":"SCALAR"}],"materials":[{"pbrMetallicRoughness":{"metallicFactor":0,"roughnessFactor":1},"alphaMode":"MASK","alphaCutoff":0.05,"doubleSided":true}],"meshes":[{"primitives":[{"mode":4,"attributes":{"POSITION":0,"NORMAL":1,"TEXCOORD_0":2},"indices":3,"material":0}]}]}